<?xml version="1.0" encoding="utf-8"?>
<!-- Generator: Adobe Illustrator 20.0.0, SVG Export Plug-In . SVG Version: 6.00 Build 0)  -->
<svg version="1.1" id="Layer_1" xmlns="http://www.w3.org/2000/svg" xmlns:xlink="http://www.w3.org/1999/xlink" x="0px" y="0px"
	 viewBox="0 0 601.1 93.8" style="enable-background:new 0 0 601.1 93.8;" xml:space="preserve">
<style type="text/css">
	.st0{fill:#FFFFFF;}
</style>
<g>
	<path class="st0" d="M24.7,66.5l-4.2,1.9l-1.6,2.9l-6.1,0.3L0,58.8l0.3-6.1l2.9-1.6l2.5-5.5c0.4,1.3,1,2.6,1.6,3.9l-0.3-0.3
		l-1.1,2.5l8,8l6.1,6.1l1.8-0.8C22.6,65.6,23.6,66.1,24.7,66.5z M17.3,68.7l0.6-1.1L4,53.7l-1.1,0.6l-0.2,3.4l11.1,11.1L17.3,68.7z"
		/>
	<path class="st0" d="M64.7,81.4l3.2,12.4l-12.4-3.2L38.3,69.4c0.1,0,0.2,0,0.3,0c1,0,2,0,3-0.1l15.5,19l7.2,1.8l-1.8-7.2L45.1,68.8
		c1.1-0.2,2.2-0.5,3.2-0.8L64.7,81.4z"/>
	<path class="st0" d="M73.3,34.7c0,14.4-8.8,26.8-21.3,32l-10.5-8.5l0.1-1.7l3.5-7.8l3.5-2l0.5-9.4L34.2,22.5L24.8,23l-2,3.5
		l-8.7,3.9l1.6,2.8l-8.4,8.4L4.5,40l-0.1,0.3c-0.3-1.8-0.5-3.7-0.5-5.6C3.9,15.5,19.4,0,38.6,0S73.3,15.5,73.3,34.7z"/>
	<path class="st0" d="M38,59.7l10.3,8.3c-1.1,0.3-2.1,0.6-3.2,0.8l-8.3-6.7l-0.6,0.6l5.4,6.6c-1,0.1-2,0.1-3,0.1c-0.1,0-0.2,0-0.3,0
		L33.8,64l-4.3,0.3l-1.3-2.8l-2.3,2.3l1,1.8l-2.1,1c-1-0.5-2.1-1-3.1-1.5l0.7-0.3L7.2,49.5c-0.6-1.3-1.1-2.6-1.6-3.9L6,44.8l1.8,1
		l12.1-12.1l-1-1.8l6.3-2.8l1.6-2.9l6.1-0.3l12.8,12.8l-0.3,6.1l-2.9,1.6l-2.8,6.3l-1.8-1l-2.3,2.3l2.8,1.3L38,59.7z M42.8,43.2
		l0.2-3.4L31.8,28.6l-3.4,0.2l-0.6,1.1l13.9,13.9L42.8,43.2z M38.8,48.3l1.1-2.5l-14-14l-2.5,1.1L38.8,48.3z M35.8,50L21.6,35.7
		L9.8,47.5l14.3,14.3L35.8,50z M35.4,59.7l0.2-2.7l-2-1l-3.5,3.5l1,2l2.7-0.2L35.4,59.7z"/>
</g>
<g>
	<path class="st0" d="M110.2,57.5c0.1,0.1,0.4,0.2,0.8,0.5c0.4,0.2,1,0.4,1.6,0.7c0.7,0.2,1.4,0.4,2.3,0.6c0.8,0.2,1.7,0.3,2.6,0.3
		c1.4,0,2.4-0.2,3.3-0.7c0.8-0.4,1.5-1.1,1.9-2.1c0.4-1,0.7-2.2,0.8-3.8c0.1-1.5,0.2-3.4,0.2-5.7V23.6h12.7v23.6
		c0,3.5-0.2,6.7-0.6,9.6c-0.4,2.9-1.2,5.4-2.5,7.4c-1.3,2-3.2,3.6-5.7,4.8c-2.5,1.1-5.9,1.7-10.1,1.7c-3.9,0-7.3-1-10.1-2.9
		L110.2,57.5z"/>
	<path class="st0" d="M154.8,23.6h11.6l16.1,46.4h-12.9l-2.8-9.1h-12.4l-2.7,9.1h-13L154.8,23.6z M164.8,52.5l-4.1-14.4l-4.3,14.4
		H164.8z"/>
	<path class="st0" d="M221.5,70.1V45.6l-7.8,17.2h-6.8l-7.8-17.2v24.4h-12.7V23.6h13.9l10,21.8l10.1-21.8h13.9v46.4H221.5z"/>
	<path class="st0" d="M275.3,58.9v11.1h-33.1V23.6h32.5v11.1H255v6.5h16.9v10.3H255v7.3H275.3z"/>
	<path class="st0" d="M309.4,38.8c-1.3-0.8-2.7-1.5-4.1-2.1c-1.2-0.5-2.5-1-4-1.5c-1.5-0.5-2.9-0.7-4.3-0.7c-1.1,0-2,0.2-2.7,0.5
		c-0.7,0.3-1,0.9-1,1.8c0,0.6,0.2,1.1,0.6,1.5c0.4,0.4,1,0.8,1.7,1.1c0.7,0.3,1.6,0.6,2.7,0.9c1.1,0.3,2.3,0.7,3.6,1.1
		c2.1,0.7,4.1,1.4,5.8,2.2c1.7,0.8,3.2,1.7,4.4,2.8c1.2,1.1,2.2,2.4,2.8,3.9c0.7,1.5,1,3.4,1,5.6c0,2.8-0.5,5.1-1.5,7
		c-1,1.9-2.4,3.4-4.1,4.5c-1.7,1.1-3.6,2-5.7,2.5c-2.1,0.5-4.2,0.8-6.4,0.8c-1.7,0-3.4-0.1-5.2-0.4c-1.8-0.3-3.6-0.6-5.3-1.1
		c-1.8-0.5-3.5-1-5.1-1.7c-1.6-0.7-3.1-1.4-4.5-2.2l5.5-11.2c1.5,1,3.1,1.8,4.8,2.5c1.4,0.7,3,1.2,4.7,1.8c1.8,0.5,3.6,0.8,5.4,0.8
		c1.4,0,2.4-0.2,2.9-0.6s0.8-0.9,0.8-1.5c0-0.7-0.3-1.2-0.8-1.7s-1.3-0.9-2.3-1.2c-1-0.3-2.1-0.7-3.3-1c-1.2-0.3-2.6-0.8-4-1.2
		c-2-0.7-3.8-1.4-5.3-2.3c-1.5-0.8-2.7-1.7-3.7-2.7c-1-1-1.7-2.2-2.1-3.5c-0.5-1.3-0.7-2.8-0.7-4.5c0-2.6,0.5-4.8,1.4-6.8
		c0.9-2,2.2-3.6,3.8-4.9c1.6-1.3,3.5-2.3,5.5-3c2.1-0.7,4.3-1,6.6-1c1.7,0,3.4,0.2,5,0.5c1.6,0.3,3.2,0.7,4.7,1.2
		c1.5,0.5,2.9,1,4.2,1.6s2.5,1.1,3.5,1.7L309.4,38.8z"/>
	<path class="st0" d="M365.4,70.1l-2.5-2.6c-1.9,1.1-3.8,2-5.9,2.5c-2,0.5-4.1,0.8-6.1,0.8c-2.7,0-5.1-0.4-7.1-1.3
		c-2-0.9-3.7-2-5.1-3.4c-1.4-1.4-2.4-3-3.1-4.7c-0.7-1.8-1-3.5-1-5.3c0-2.7,0.6-5,1.9-6.9c1.3-1.9,2.8-3.6,4.6-5.1
		c-1.4-1.7-2.4-3.2-2.9-4.5c-0.6-1.3-0.8-2.8-0.8-4.4c0-1.9,0.3-3.6,1-5.1c0.7-1.5,1.6-2.8,2.8-3.8c1.2-1,2.6-1.8,4.3-2.3
		c1.7-0.5,3.5-0.8,5.4-0.8c1.7,0,3.4,0.2,5,0.6c1.6,0.4,3.1,1.1,4.4,2c1.3,0.9,2.3,2,3.1,3.5c0.8,1.4,1.2,3.1,1.2,5.1
		c0,2.4-0.5,4.5-1.6,6.3c-1.1,1.9-2.5,3.6-4.4,5.2l5.4,5.7c0.5-1.2,0.8-2.5,1.1-4c0.3-1.4,0.4-3,0.4-4.6h10c0,3.4-0.4,6.4-1.2,9.1
		c-0.7,2.7-1.7,5.1-3,7.2l10.4,10.9H365.4z M352.2,61c1.3,0,2.6-0.3,3.9-0.8l-7.4-7.9c-1.5,1.2-2.2,2.4-2.2,3.7c0,0.5,0.1,1,0.3,1.6
		c0.2,0.6,0.5,1.1,1,1.7c0.5,0.5,1.1,1,1.8,1.3C350.3,60.9,351.2,61,352.2,61z M348.6,34.5c0,0.6,0.2,1.1,0.5,1.5
		c0.3,0.4,0.9,1,1.7,1.7c0.9-0.6,1.5-1.1,1.9-1.6c0.4-0.5,0.6-1,0.6-1.7c0-0.7-0.2-1.3-0.6-1.7c-0.4-0.4-1-0.6-1.7-0.6
		c-0.7,0-1.3,0.2-1.7,0.7C348.8,33.2,348.6,33.8,348.6,34.5z"/>
	<path class="st0" d="M400,70.1V23.6h20c2.3,0,4.4,0.5,6.3,1.4c1.9,0.9,3.6,2.2,4.9,3.7c1.4,1.5,2.5,3.2,3.2,5.2
		c0.8,1.9,1.2,3.9,1.2,5.9c0,2-0.4,4-1.1,6c-0.7,1.9-1.8,3.7-3.1,5.2c-1.3,1.5-2.9,2.7-4.8,3.6c-1.9,0.9-4,1.3-6.2,1.3h-7.6v14.3
		H400z M412.7,44.7h6.7c0.8,0,1.5-0.4,2.2-1.1c0.7-0.7,1-2,1-3.9c0-1.9-0.4-3.2-1.2-3.9c-0.8-0.7-1.6-1-2.4-1h-6.4V44.7z"/>
	<path class="st0" d="M440.7,70.1V23.6H462c2.3,0,4.4,0.5,6.3,1.4c1.9,0.9,3.6,2.2,4.9,3.7c1.4,1.5,2.5,3.2,3.2,5.2
		c0.8,1.9,1.2,3.9,1.2,5.9c0,2.7-0.6,5.2-1.8,7.6s-2.8,4.2-4.9,5.7l9.8,17.1h-14.4l-8.2-14.3h-4.8v14.3H440.7z M453.4,44.7h8
		c0.8,0,1.5-0.4,2.2-1.3c0.7-0.9,1-2.1,1-3.7c0-1.6-0.4-2.8-1.2-3.7c-0.8-0.8-1.6-1.3-2.4-1.3h-7.7V44.7z"/>
	<path class="st0" d="M496.8,23.6h11.6l16.1,46.4h-12.9l-2.8-9.1h-12.4l-2.7,9.1h-13L496.8,23.6z M506.8,52.5l-4.1-14.4l-4.3,14.4
		H506.8z"/>
	<path class="st0" d="M560.3,34.8H547v35.3h-12.7V34.8h-13.4V23.6h39.5V34.8z"/>
	<path class="st0" d="M601.1,34.8h-13.3v35.3H575V34.8h-13.4V23.6h39.5V34.8z"/>
</g>
</svg>
