<?xml version="1.0" encoding="utf-8"?>
<!-- Generator: Adobe Illustrator 20.0.0, SVG Export Plug-In . SVG Version: 6.00 Build 0)  -->
<svg version="1.1" id="Layer_1" xmlns="http://www.w3.org/2000/svg" xmlns:xlink="http://www.w3.org/1999/xlink" x="0px" y="0px"
	 viewBox="0 0 73.3 93.8" style="enable-background:new 0 0 73.3 93.8;" xml:space="preserve">
<style type="text/css">
	.st0{fill:#FFFFFF;}
</style>
<g>
	<path class="st0" d="M24.7,66.5l-4.2,1.9l-1.6,2.9l-6.1,0.3L0,58.8l0.3-6.1l2.9-1.6l2.5-5.5c0.4,1.3,1,2.6,1.6,3.9l-0.3-0.3
		l-1.1,2.5l8,8l6.1,6.1l1.8-0.8C22.6,65.6,23.6,66.1,24.7,66.5z M17.3,68.7l0.6-1.1L4,53.7l-1.1,0.6l-0.2,3.4l11.1,11.1L17.3,68.7z"
		/>
	<path class="st0" d="M64.7,81.4l3.2,12.4l-12.4-3.2L38.3,69.4c0.1,0,0.2,0,0.3,0c1,0,2,0,3-0.1l15.5,19l7.2,1.8l-1.8-7.2L45.1,68.8
		c1.1-0.2,2.2-0.5,3.2-0.8L64.7,81.4z"/>
	<path class="st0" d="M73.3,34.7c0,14.4-8.8,26.8-21.3,32l-10.5-8.5l0.1-1.7l3.5-7.8l3.5-2l0.5-9.4L34.2,22.5L24.8,23l-2,3.5
		l-8.7,3.9l1.6,2.8l-8.4,8.4L4.5,40l-0.1,0.3c-0.3-1.8-0.5-3.7-0.5-5.6C3.9,15.5,19.4,0,38.6,0S73.3,15.5,73.3,34.7z"/>
	<path class="st0" d="M38,59.7l10.3,8.3c-1.1,0.3-2.1,0.6-3.2,0.8l-8.3-6.7l-0.6,0.6l5.4,6.6c-1,0.1-2,0.1-3,0.1c-0.1,0-0.2,0-0.3,0
		L33.8,64l-4.3,0.3l-1.3-2.8l-2.3,2.3l1,1.8l-2.1,1c-1-0.5-2.1-1-3.1-1.5l0.7-0.3L7.2,49.5c-0.6-1.3-1.1-2.6-1.6-3.9L6,44.8l1.8,1
		l12.1-12.1l-1-1.8l6.3-2.8l1.6-2.9l6.1-0.3l12.8,12.8l-0.3,6.1l-2.9,1.6l-2.8,6.3l-1.8-1l-2.3,2.3l2.8,1.3L38,59.7z M42.8,43.2
		l0.2-3.4L31.8,28.6l-3.4,0.2l-0.6,1.1l13.9,13.9L42.8,43.2z M38.8,48.3l1.1-2.5l-14-14l-2.5,1.1L38.8,48.3z M35.8,50L21.6,35.7
		L9.8,47.5l14.3,14.3L35.8,50z M35.4,59.7l0.2-2.7l-2-1l-3.5,3.5l1,2l2.7-0.2L35.4,59.7z"/>
</g>
</svg>
