<?xml version="1.0" encoding="utf-8"?>
<!-- Generator: Adobe Illustrator 20.0.0, SVG Export Plug-In . SVG Version: 6.00 Build 0)  -->
<svg version="1.1" id="Layer_1" xmlns="http://www.w3.org/2000/svg" xmlns:xlink="http://www.w3.org/1999/xlink" x="0px" y="0px"
	 viewBox="0 0 100 100" style="enable-background:new 0 0 100 100;" xml:space="preserve">
<style type="text/css">
	.st0{fill:#FFFFFF;}
</style>
<path class="st0" d="M99.6,86.7l-5.5-5.5c0,0-0.1,0-0.1-0.1c0,0,0-0.1-0.1-0.1L61.8,48.9L87.7,23c0,0,0,0,0,0
	c0.1-0.1,0.1-0.2,0.2-0.2c0-0.1,0.1-0.2,0.1-0.2l8.2-19.4C96.5,2.6,96.4,2,96,1.6c-0.4-0.4-1-0.5-1.5-0.3L75.4,9.8
	c-0.1,0-0.2,0.1-0.2,0.1c-0.1,0-0.2,0.1-0.2,0.2c0,0,0,0-0.1,0L48.9,36l-3.9-3.9L40,27.1l4.4-4.4c0.3-0.3,0.4-0.6,0.4-1
	c0-0.4-0.1-0.7-0.4-1L24.7,1c-0.5-0.5-1.4-0.5-1.9,0l-4.4,4.4l-5.1-5.1c-0.5-0.5-1.4-0.5-1.9,0l-11,11c-0.5,0.5-0.5,1.4,0,1.9l6,6
	c0,0,0,0,0,0l25.8,25.8c0,0,0,0,0,0l3.8,3.8L5.3,79.6l-4.8,4.8c-0.3,0.3-0.4,0.6-0.4,1s0.1,0.7,0.4,1l11,11c0.3,0.3,0.6,0.4,1,0.4
	c0.4,0,0.7-0.1,1-0.4l4.8-4.8c0,0,0,0,0,0l30.7-30.7l32.1,32.1c0,0,0.1,0,0.1,0.1c0,0,0,0.1,0.1,0.1l5.5,5.5c0.3,0.3,0.6,0.4,1,0.4
	c0.4,0,0.7-0.1,1-0.4l11-11c0.3-0.3,0.4-0.6,0.4-1S99.9,87,99.6,86.7z M17.3,89.6l-2.3-2.3l67.5-67.5l2.3,2.3L17.3,89.6z M75.8,13.1
	l2.3,2.3L10.6,82.9l-2.3-2.3L75.8,13.1z M89.6,11.8l-3.3,7.8l-8.1-8.1l7.7-3.4L89.6,11.8z M9.3,18.3l9-9l23.8,23.8l-9,9L9.3,18.3z
	 M38.1,25.2L35.9,23l3.4-3.4l2.2,2.2L38.1,25.2z M23.7,4l14.7,14.7L35,22.1L20.3,7.4L23.7,4z M12.3,3.3l4.1,4.1l-9,9l-4.1-4.1
	L12.3,3.3z M35.1,44.1l9-9L47,38l-9,9L35.1,44.1z M3.4,85.4l2.9-2.9l9,9l-2.9,2.9L3.4,85.4z M59.9,50.9L91,82l-9,9L50.9,59.9
	L59.9,50.9z M87.7,96.7l-3.5-3.5l9-9l3.5,3.5L87.7,96.7z"/>
</svg>
